<svg width="291" height="62" viewBox="0 0 291 62" fill="#99918C" xmlns="http://www.w3.org/2000/svg">
  <path d="M18.1591 0C15.1641 0 12.7271 2.437 12.7271 5.432C12.7271 8.431 15.1641 10.871 18.1591 10.871C21.1571 10.871 23.5971 8.431 23.5971 5.432C23.5961 2.437 21.1571 0 18.1591 0Z" />
  <path d="M30.8829 0C27.8879 0 25.4509 2.437 25.4509 5.432C25.4509 8.431 27.8879 10.871 30.8829 10.871C33.8779 10.871 36.3149 8.431 36.3149 5.432C36.3149 2.437 33.8779 0 30.8829 0Z" />
  <path d="M43.6021 0C40.6091 0 38.175 2.437 38.175 5.432C38.175 8.431 40.6101 10.871 43.6021 10.871C46.6001 10.871 49.0401 8.431 49.0401 5.432C49.0391 2.437 46.6001 0 43.6021 0Z" />
  <path d="M5.44 12.72C2.44 12.72 0 15.157 0 18.152C0 21.15 2.44 23.59 5.44 23.59C8.433 23.59 10.867 21.151 10.867 18.152C10.867 15.157 8.433 12.72 5.44 12.72Z" />
  <path d="M56.3261 12.72C53.3291 12.72 50.8911 15.157 50.8911 18.152C50.8911 21.15 53.3291 23.59 56.3261 23.59C59.3231 23.59 61.7611 21.151 61.7611 18.152C61.7601 15.157 59.3221 12.72 56.3261 12.72Z" />
  <path d="M5.44 25.439C2.44 25.439 0 27.878 0 30.877C0 33.872 2.44 36.31 5.44 36.31C8.433 36.31 10.867 33.872 10.867 30.877C10.867 27.878 8.433 25.439 5.44 25.439Z" />
  <path d="M30.8829 25.439C27.8879 25.439 25.4509 27.878 25.4509 30.877C25.4509 33.872 27.8879 36.31 30.8829 36.31C33.8779 36.31 36.3149 33.872 36.3149 30.877C36.3149 27.878 33.8779 25.439 30.8829 25.439Z" />
  <path d="M43.6021 25.439C40.6091 25.439 38.175 27.878 38.175 30.877C38.175 33.872 40.6101 36.31 43.6021 36.31C46.6001 36.31 49.0401 33.872 49.0401 30.877C49.0391 27.878 46.6001 25.439 43.6021 25.439Z" />
  <path d="M56.3261 25.439C53.3291 25.439 50.8911 27.878 50.8911 30.877C50.8911 33.872 53.3291 36.31 56.3261 36.31C59.3231 36.31 61.7611 33.872 61.7611 30.877C61.7601 27.878 59.3221 25.439 56.3261 25.439Z" />
  <path d="M5.44 38.163C2.44 38.163 0 40.601 0 43.596C0 46.594 2.44 49.034 5.44 49.034C8.433 49.034 10.867 46.595 10.867 43.596C10.867 40.6 8.433 38.163 5.44 38.163Z" />
  <path d="M18.1591 50.887C15.1641 50.887 12.7271 53.324 12.7271 56.319C12.7271 59.315 15.1641 61.752 18.1591 61.752C21.1571 61.752 23.5971 59.315 23.5971 56.319C23.5961 53.324 21.1571 50.887 18.1591 50.887Z" />
  <path d="M30.8829 50.887C27.8879 50.887 25.4509 53.324 25.4509 56.319C25.4509 59.315 27.8879 61.752 30.8829 61.752C33.8779 61.752 36.3149 59.315 36.3149 56.319C36.3149 53.324 33.8779 50.887 30.8829 50.887Z" />
  <path d="M43.6021 50.887C40.6091 50.887 38.175 53.324 38.175 56.319C38.175 59.315 40.6101 61.752 43.6021 61.752C46.6001 61.752 49.0401 59.315 49.0401 56.319C49.0391 53.324 46.6001 50.887 43.6021 50.887Z" />
  <path d="M285.479 38.163C282.484 38.163 280.047 40.601 280.047 43.596C280.047 46.594 282.484 49.034 285.479 49.034C288.473 49.034 290.909 46.595 290.909 43.596C290.908 40.6 288.473 38.163 285.479 38.163Z" />
  <path d="M234.588 38.163C231.594 38.163 229.158 40.601 229.158 43.596C229.158 46.594 231.594 49.034 234.588 49.034C237.586 49.034 240.026 46.595 240.026 43.596C240.025 40.6 237.586 38.163 234.588 38.163Z" />
  <path d="M285.479 25.439C282.484 25.439 280.047 27.878 280.047 30.877C280.047 33.872 282.484 36.31 285.479 36.31C288.473 36.31 290.909 33.872 290.909 30.877C290.908 27.878 288.473 25.439 285.479 25.439Z" />
  <path d="M260.039 50.887C257.042 50.887 254.603 53.324 254.603 56.319C254.603 59.315 257.041 61.752 260.039 61.752C263.037 61.752 265.475 59.315 265.475 56.319C265.475 53.324 263.036 50.887 260.039 50.887Z" />
  <path d="M247.314 50.887C244.318 50.887 241.88 53.324 241.88 56.319C241.88 59.315 244.318 61.752 247.314 61.752C250.308 61.752 252.744 59.315 252.744 56.319C252.744 53.324 250.309 50.887 247.314 50.887Z" />
  <path d="M285.479 12.72C282.484 12.72 280.047 15.157 280.047 18.152C280.047 21.15 282.484 23.59 285.479 23.59C288.473 23.59 290.909 21.151 290.909 18.152C290.908 15.157 288.473 12.72 285.479 12.72Z" />
  <path d="M285.479 0C282.484 0 280.047 2.437 280.047 5.432C280.047 8.431 282.484 10.871 285.479 10.871C288.473 10.871 290.909 8.431 290.909 5.432C290.908 2.437 288.473 0 285.479 0Z" />
  <path d="M272.76 0C269.762 0 267.322 2.437 267.322 5.432C267.322 8.431 269.761 10.871 272.76 10.871C275.756 10.871 278.194 8.431 278.194 5.432C278.193 2.437 275.756 0 272.76 0Z" />
  <path d="M260.039 0C257.042 0 254.603 2.437 254.603 5.432C254.603 8.431 257.041 10.871 260.039 10.871C263.037 10.871 265.475 8.431 265.475 5.432C265.475 2.437 263.036 0 260.039 0Z" />
  <path d="M247.314 0C244.318 0 241.88 2.437 241.88 5.432C241.88 8.431 244.318 10.871 247.314 10.871C250.308 10.871 252.744 8.431 252.744 5.432C252.744 2.437 250.309 0 247.314 0Z" />
  <path d="M81.983 0C78.988 0 76.551 2.437 76.551 5.432C76.551 8.431 78.988 10.871 81.983 10.871C84.981 10.871 87.421 8.431 87.421 5.432C87.42 2.437 84.981 0 81.983 0Z" />
  <path d="M94.707 0C91.709 0 89.269 2.437 89.269 5.432C89.269 8.431 91.708 10.871 94.707 10.871C97.702 10.871 100.139 8.431 100.139 5.432C100.139 2.437 97.702 0 94.707 0Z" />
  <path d="M132.874 0C129.874 0 127.434 2.437 127.434 5.432C127.434 8.431 129.874 10.871 132.874 10.871C135.87 10.871 138.307 8.431 138.307 5.432C138.306 2.437 135.869 0 132.874 0Z" />
  <path d="M107.431 12.72C104.433 12.72 101.993 15.157 101.993 18.152C101.993 21.15 104.432 23.59 107.431 23.59C110.426 23.59 112.863 21.151 112.863 18.152C112.863 15.157 110.426 12.72 107.431 12.72Z" />
  <path d="M120.155 12.72C117.155 12.72 114.715 15.157 114.715 18.152C114.715 21.15 117.155 23.59 120.155 23.59C123.148 23.59 125.582 21.151 125.582 18.152C125.582 15.157 123.147 12.72 120.155 12.72Z" />
  <path d="M107.431 25.439C104.433 25.439 101.993 27.878 101.993 30.877C101.993 33.872 104.432 36.31 107.431 36.31C110.426 36.31 112.863 33.872 112.863 30.877C112.863 27.878 110.426 25.439 107.431 25.439Z" />
  <path d="M94.707 38.163C91.709 38.163 89.269 40.601 89.269 43.596C89.269 46.594 91.708 49.034 94.707 49.034C97.702 49.034 100.139 46.595 100.139 43.596C100.139 40.6 97.702 38.163 94.707 38.163Z" />
  <path d="M107.431 38.163C104.433 38.163 101.993 40.601 101.993 43.596C101.993 46.594 104.432 49.034 107.431 49.034C110.426 49.034 112.863 46.595 112.863 43.596C112.863 40.6 110.426 38.163 107.431 38.163Z" />
  <path d="M81.983 50.887C78.988 50.887 76.551 53.324 76.551 56.319C76.551 59.315 78.988 61.752 81.983 61.752C84.981 61.752 87.421 59.315 87.421 56.319C87.42 53.324 84.981 50.887 81.983 50.887Z" />
  <path d="M120.155 50.887C117.155 50.887 114.715 53.324 114.715 56.319C114.715 59.315 117.155 61.752 120.155 61.752C123.148 61.752 125.582 59.315 125.582 56.319C125.582 53.324 123.147 50.887 120.155 50.887Z" />
  <path d="M132.874 50.887C129.874 50.887 127.434 53.324 127.434 56.319C127.434 59.315 129.874 61.752 132.874 61.752C135.87 61.752 138.307 59.315 138.307 56.319C138.306 53.324 135.869 50.887 132.874 50.887Z" />
  <path d="M158.246 0C155.247 0 152.808 2.437 152.808 5.432C152.808 8.431 155.247 10.871 158.246 10.871C161.241 10.871 163.678 8.431 163.678 5.432C163.678 2.437 161.241 0 158.246 0Z" />
  <path d="M170.965 0C167.969 0 165.531 2.437 165.531 5.432C165.531 8.431 167.969 10.871 170.965 10.871C173.96 10.871 176.397 8.431 176.397 5.432C176.396 2.437 173.96 0 170.965 0Z" />
  <path d="M183.684 0C180.691 0 178.256 2.437 178.256 5.432C178.256 8.431 180.691 10.871 183.684 10.871C186.682 10.871 189.122 8.431 189.122 5.432C189.121 2.437 186.682 0 183.684 0Z" />
  <path d="M196.408 0C193.413 0 190.976 2.437 190.976 5.432C190.976 8.431 193.413 10.871 196.408 10.871C199.406 10.871 201.846 8.431 201.846 5.432C201.846 2.437 199.406 0 196.408 0Z" />
  <path d="M158.246 12.72C155.247 12.72 152.808 15.157 152.808 18.152C152.808 21.15 155.247 23.59 158.246 23.59C161.241 23.59 163.678 21.151 163.678 18.152C163.678 15.157 161.241 12.72 158.246 12.72Z" />
  <path d="M209.133 12.72C206.137 12.72 203.699 15.157 203.699 18.152C203.699 21.15 206.137 23.59 209.133 23.59C212.129 23.59 214.567 21.151 214.567 18.152C214.566 15.157 212.129 12.72 209.133 12.72Z" />
  <path d="M158.246 25.439C155.247 25.439 152.808 27.878 152.808 30.877C152.808 33.872 155.247 36.31 158.246 36.31C161.241 36.31 163.678 33.872 163.678 30.877C163.678 27.878 161.241 25.439 158.246 25.439Z" />
  <path d="M209.133 25.439C206.137 25.439 203.699 27.878 203.699 30.877C203.699 33.872 206.137 36.31 209.133 36.31C212.129 36.31 214.567 33.872 214.567 30.877C214.566 27.878 212.129 25.439 209.133 25.439Z" />
  <path d="M158.246 38.163C155.247 38.163 152.808 40.601 152.808 43.596C152.808 46.594 155.247 49.034 158.246 49.034C161.241 49.034 163.678 46.595 163.678 43.596C163.678 40.6 161.241 38.163 158.246 38.163Z" />
  <path d="M183.684 38.163C180.691 38.163 178.256 40.601 178.256 43.596C178.256 46.594 180.691 49.034 183.684 49.034C186.682 49.034 189.122 46.595 189.122 43.596C189.121 40.6 186.682 38.163 183.684 38.163Z" />
  <path d="M196.408 38.163C193.413 38.163 190.976 40.601 190.976 43.596C190.976 46.594 193.413 49.034 196.408 49.034C199.406 49.034 201.846 46.595 201.846 43.596C201.846 40.6 199.406 38.163 196.408 38.163Z" />
  <path d="M158.246 50.887C155.247 50.887 152.808 53.324 152.808 56.319C152.808 59.315 155.247 61.752 158.246 61.752C161.241 61.752 163.678 59.315 163.678 56.319C163.678 53.324 161.241 50.887 158.246 50.887Z" />
  <path d="M234.588 12.72C231.594 12.72 229.158 15.157 229.158 18.152C229.158 21.15 231.594 23.59 234.588 23.59C237.586 23.59 240.026 21.151 240.026 18.152C240.025 15.157 237.586 12.72 234.588 12.72Z" />
  <path d="M234.588 25.439C231.594 25.439 229.158 27.878 229.158 30.877C229.158 33.872 231.594 36.31 234.588 36.31C237.586 36.31 240.026 33.872 240.026 30.877C240.025 27.878 237.586 25.439 234.588 25.439Z" />
  <path d="M285.479 50.887C282.484 50.887 280.047 53.324 280.047 56.319C280.047 59.315 282.484 61.752 285.479 61.752C288.473 61.752 290.909 59.315 290.909 56.319C290.908 53.324 288.473 50.887 285.479 50.887Z" />
</svg>
